<?xml version="1.0" standalone="no"?><!DOCTYPE svg PUBLIC "-//W3C//DTD SVG 1.1//EN" "http://www.w3.org/Graphics/SVG/1.1/DTD/svg11.dtd"><svg t="1587370770203" class="icon" viewBox="0 0 1024 1024" version="1.1" xmlns="http://www.w3.org/2000/svg" p-id="3428" xmlns:xlink="http://www.w3.org/1999/xlink" width="200" height="200"><defs><style type="text/css"></style></defs><path d="M512 0a512 512 0 1 0 512 512A512 512 0 0 0 512 0z m290.133333 602.773333a79.573333 79.573333 0 0 1-97.493333 56.32h-1.6a123.626667 123.626667 0 0 1-125.226667 59.306667 33.493333 33.493333 0 1 1 0-16.853333A108.373333 108.373333 0 0 0 688.32 650.666667c-12.053333-13.973333 14.293333-37.866667 23.466667-72s-1.813333-68.266667 15.786666-74.666667a202.666667 202.666667 0 0 0 2.346667-29.44A200.853333 200.853333 0 1 0 330.666667 503.573333c24 1.6 10.666667 38.186667 20.373333 74.666667 11.413333 42.666667 49.6 69.12 7.146667 80.426667A79.573333 79.573333 0 0 1 309.333333 507.626667a222.186667 222.186667 0 1 1 439.146667-1.386667 79.466667 79.466667 0 0 1 53.653333 96.533333z" fill="#E5B237" p-id="3429"></path></svg>