<?xml version="1.0" standalone="no"?><!DOCTYPE svg PUBLIC "-//W3C//DTD SVG 1.1//EN" "http://www.w3.org/Graphics/SVG/1.1/DTD/svg11.dtd"><svg t="1587370745198" class="icon" viewBox="0 0 1024 1024" version="1.1" xmlns="http://www.w3.org/2000/svg" p-id="3162" xmlns:xlink="http://www.w3.org/1999/xlink" width="200" height="200"><defs><style type="text/css"></style></defs><path d="M706.666667 496.64c0-83.626667-96.64-151.68-215.466667-151.68s-215.466667 68.053333-215.466667 151.68c0 40.96 23.04 79.466667 64.96 108.373333a10.666667 10.666667 0 0 1 2.986667 14.506667l-39.146667 61.44L437.333333 644.48a10.666667 10.666667 0 0 1 4.586667 0 302.826667 302.826667 0 0 0 49.173333 3.946667c118.933333-0.106667 215.573333-68.16 215.573334-151.786667zM373.333333 529.066667a34.24 34.24 0 1 1 34.24-34.24A34.24 34.24 0 0 1 373.333333 529.066667z m232-68.373334a34.24 34.24 0 1 1-34.24 34.24 34.24 34.24 0 0 1 34.026667-34.24zM456.96 494.933333a34.24 34.24 0 1 1 34.24 34.24 34.24 34.24 0 0 1-34.24-34.24z" fill="#3280C9" p-id="3163"></path><path d="M512 0a512 512 0 1 0 512 512A512 512 0 0 0 512 0zM283.413333 708.8a10.666667 10.666667 0 0 1-2.773333 0 10.666667 10.666667 0 0 1-9.066667-15.466667L320 616.426667c-42.666667-32-65.813333-74.666667-65.813333-119.893334 0-95.36 106.666667-173.013333 236.8-173.013333s236.8 77.653333 236.8 173.013333-106.666667 173.013333-236.8 173.013334a324.053333 324.053333 0 0 1-50.346667-3.946667z m473.92 2.133333a10.666667 10.666667 0 0 1-12.16 15.146667L650.666667 701.973333a86.506667 86.506667 0 0 0-10.026667 4.693334 211.093333 211.093333 0 0 1-97.706667 24.533333h-17.493333a350.72 350.72 0 0 1-54.186667-4.48 10.666667 10.666667 0 0 1 3.2-21.333333 317.44 317.44 0 0 0 67.52 3.84 189.44 189.44 0 0 0 88.853334-22.186667 62.506667 62.506667 0 0 1 18.133333-7.253333 10.666667 10.666667 0 0 1 4.373333 0l74.666667 18.986666L704 654.4a10.666667 10.666667 0 0 1 1.386667-11.733333c25.066667-29.546667 35.52-41.706667 42.666666-81.6a10.666667 10.666667 0 0 1 21.333334 3.733333c-7.68 42.666667-19.626667 58.88-42.666667 86.186667z" fill="#3280C9" p-id="3164"></path></svg>