<?xml version="1.0" standalone="no"?><!DOCTYPE svg PUBLIC "-//W3C//DTD SVG 1.1//EN" "http://www.w3.org/Graphics/SVG/1.1/DTD/svg11.dtd"><svg t="1587370811421" class="icon" viewBox="0 0 1024 1024" version="1.1" xmlns="http://www.w3.org/2000/svg" p-id="3558" xmlns:xlink="http://www.w3.org/1999/xlink" width="200" height="200"><defs><style type="text/css"></style></defs><path d="M568.533333 392.426667H394.666667a61.333333 61.333333 0 0 0-61.226667 61.226666V644.266667A61.333333 61.333333 0 0 0 394.666667 705.493333a10.666667 10.666667 0 0 1 9.386666 5.546667l35.2 64 49.386667-65.173333a10.666667 10.666667 0 0 1 8.533333-4.266667h71.36A61.333333 61.333333 0 0 0 629.333333 644.266667V453.76a61.333333 61.333333 0 0 0-60.8-61.333333z m-182.293333 81.28h132.586667a18.88 18.88 0 0 1 0 37.866666H386.24a18.88 18.88 0 1 1 0-37.866666z m170.666667 153.173333h-170.666667a18.88 18.88 0 0 1 0-37.866667h170.666667a18.88 18.88 0 0 1 0 37.866667z" fill="#7C32C9" p-id="3559"></path><path d="M512 0a512 512 0 1 0 512 512A512 512 0 0 0 512 0z m138.666667 644.266667a82.666667 82.666667 0 0 1-82.56 82.56h-66.24l-56.106667 74.026666a10.666667 10.666667 0 0 1-8.533333 4.266667h-0.746667a10.666667 10.666667 0 0 1-8.533333-5.44l-40.213334-72.96a82.666667 82.666667 0 0 1-76.16-82.346667V453.76A82.666667 82.666667 0 0 1 394.666667 371.093333h173.866666a82.666667 82.666667 0 0 1 82.133334 82.666667z m76.373333-82.453334a81.92 81.92 0 0 1-33.173333 66.133334 10.666667 10.666667 0 0 1-12.8-17.066667 60.8 60.8 0 0 0 24.64-49.066667V385.6a61.333333 61.333333 0 0 0-61.226667-61.226667h-160a61.226667 61.226667 0 0 0-46.613333 21.333334 10.666667 10.666667 0 0 1-16.213334-13.866667 82.453333 82.453333 0 0 1 62.826667-28.906667h160a82.666667 82.666667 0 0 1 82.56 82.56z" fill="#7C32C9" p-id="3560"></path></svg>