<?xml version="1.0" standalone="no"?><!DOCTYPE svg PUBLIC "-//W3C//DTD SVG 1.1//EN" "http://www.w3.org/Graphics/SVG/1.1/DTD/svg11.dtd"><svg t="1587370896277" class="icon" viewBox="0 0 1024 1024" version="1.1" xmlns="http://www.w3.org/2000/svg" p-id="3689" xmlns:xlink="http://www.w3.org/1999/xlink" width="200" height="200"><defs><style type="text/css"></style></defs><path d="M512 512m-512 0a512 512 0 1 0 1024 0 512 512 0 1 0-1024 0Z" fill="#5C6BC0" p-id="3690"></path><path d="M647.9872 343.3472h-35.4304v17.2032a9.6256 9.6256 0 0 1-19.2512 0v-17.2032h-40.96v17.2032a9.6256 9.6256 0 0 1-19.2512 0v-17.2032H491.52v17.2032a9.6256 9.6256 0 0 1-19.2512 0v-17.2032h-40.96v17.2032a9.6256 9.6256 0 0 1-19.2512 0v-17.2032h-36.0448a19.2512 19.2512 0 0 0-19.2512 19.2512v334.5408A19.2512 19.2512 0 0 0 376.0128 716.8h271.9744a19.2512 19.2512 0 0 0 19.2512-19.2512V362.496a19.2512 19.2512 0 0 0-19.2512-19.1488z m-135.9872 81.92a19.2512 19.2512 0 1 1-19.2512 19.2512A19.2512 19.2512 0 0 1 512 425.2672z m-2.1504 101.888a9.6256 9.6256 0 0 1 0 19.2512H419.84a9.6256 9.6256 0 0 1 0-19.2512z m-105.5744-82.6368a19.2512 19.2512 0 1 1 19.2512 19.2512 19.2512 19.2512 0 0 1-19.2512-19.2512zM604.16 670.72H419.84a9.6256 9.6256 0 1 1 0-19.2512h184.32a9.6256 9.6256 0 1 1 0 19.2512z m0-62.1568H419.84a9.6256 9.6256 0 1 1 0-19.2512h184.32a9.6256 9.6256 0 1 1 0 19.2512z m-1.4336-144.896a19.2512 19.2512 0 1 1 19.2512-19.2512 19.2512 19.2512 0 0 1-19.0464 19.2512z" fill="#FFFFFF" p-id="3691"></path></svg>