<?xml version="1.0" standalone="no"?><!DOCTYPE svg PUBLIC "-//W3C//DTD SVG 1.1//EN" "http://www.w3.org/Graphics/SVG/1.1/DTD/svg11.dtd"><svg t="1587358139772" class="icon" viewBox="0 0 1024 1024" version="1.1" xmlns="http://www.w3.org/2000/svg" p-id="7011" xmlns:xlink="http://www.w3.org/1999/xlink" width="200" height="200"><defs><style type="text/css"></style></defs><path d="M647.36 460.48a181.333333 181.333333 0 1 0-181.333333 181.333333 181.333333 181.333333 0 0 0 181.333333-181.333333z" fill="#E5B237" p-id="7012"></path><path d="M512 0a512 512 0 1 0 512 512A512 512 0 0 0 512 0z m264 721.173333l-46.186667 46.186667a21.333333 21.333333 0 0 1-30.186666 0L585.706667 623.68a202.666667 202.666667 0 1 1 46.186666-47.146667l144.106667 114.453334a21.333333 21.333333 0 0 1 0 30.186666z" fill="#E5B237" p-id="7013"></path></svg>